<svg width="16" height="16" viewBox="0 0 16 16" fill="none" xmlns="http://www.w3.org/2000/svg">
<path fill-rule="evenodd" clip-rule="evenodd" d="M2.87348 1.81281C2.58058 1.51992 2.10571 1.51992 1.81282 1.81281C1.51992 2.1057 1.51992 2.58058 1.81282 2.87347L6.93935 8L1.81282 13.1265C1.51992 13.4194 1.51992 13.8943 1.81282 14.1872C2.10571 14.4801 2.58058 14.4801 2.87348 14.1872L8.00001 9.06066L13.1265 14.1872C13.4194 14.4801 13.8943 14.4801 14.1872 14.1872C14.4801 13.8943 14.4801 13.4194 14.1872 13.1265L9.06067 8L14.1872 2.87348C14.4801 2.58059 14.4801 2.10572 14.1872 1.81282C13.8943 1.51993 13.4194 1.51993 13.1265 1.81282L8.00001 6.93934L2.87348 1.81281Z" fill="#1D1F2C"/>
</svg>
