<svg width="14" height="16" viewBox="0 0 14 16" fill="none" xmlns="http://www.w3.org/2000/svg">
<path d="M13 6.66665H1M9.66667 1.33331V3.99998M4.33333 1.33331V3.99998M6 9.33331L7 8.66665V12M6.16667 12H7.83333M4.2 14.6666H9.8C10.9201 14.6666 11.4802 14.6666 11.908 14.4487C12.2843 14.2569 12.5903 13.951 12.782 13.5746C13 13.1468 13 12.5868 13 11.4666V5.86665C13 4.74654 13 4.18649 12.782 3.75867C12.5903 3.38234 12.2843 3.07638 11.908 2.88463C11.4802 2.66665 10.9201 2.66665 9.8 2.66665H4.2C3.0799 2.66665 2.51984 2.66665 2.09202 2.88463C1.71569 3.07638 1.40973 3.38234 1.21799 3.75867C1 4.18649 1 4.74654 1 5.86665V11.4666C1 12.5868 1 13.1468 1.21799 13.5746C1.40973 13.951 1.71569 14.2569 2.09202 14.4487C2.51984 14.6666 3.0799 14.6666 4.2 14.6666Z" stroke="#858D9D" stroke-width="1.5" stroke-linecap="round" stroke-linejoin="round"/>
</svg>
