<svg width="36" height="36" viewBox="0 0 36 36" fill="none" xmlns="http://www.w3.org/2000/svg">
<rect width="36" height="36" rx="6" fill="#F2F4F5"/>
<circle cx="18" cy="18" r="14" fill="#F2F4F5"/>
<path fill-rule="evenodd" clip-rule="evenodd" d="M10.6129 29.8947C10.6172 29.7426 10.6301 29.589 10.6522 29.4343L11.5094 23.4343C11.7909 21.4637 13.4786 20 15.4692 20H20.5308C22.5214 20 24.2091 21.4637 24.4906 23.4343L25.3478 29.4343C25.3699 29.589 25.3828 29.7426 25.3871 29.8947C29.3573 27.4238 32 23.0205 32 18C32 10.268 25.732 4 18 4C10.268 4 4 10.268 4 18C4 23.0205 6.64268 27.4238 10.6129 29.8947ZM22 14C22 16.2091 20.2091 18 18 18C15.7909 18 14 16.2091 14 14C14 11.7909 15.7909 10 18 10C20.2091 10 22 11.7909 22 14Z" fill="url(#paint0_linear_1364_5833)"/>
<path fill-rule="evenodd" clip-rule="evenodd" d="M10.6133 29.8947C10.6176 29.7426 10.6305 29.589 10.6526 29.4343L11.5098 23.4343C11.7913 21.4637 13.479 20 15.4696 20H20.5312C22.5218 20 24.2095 21.4637 24.491 23.4343L25.3482 29.4343C25.3703 29.589 25.3832 29.7426 25.3875 29.8947C23.2433 31.2292 20.7119 32 18.0004 32C15.2889 32 12.7575 31.2292 10.6133 29.8947Z" fill="url(#paint1_linear_1364_5833)"/>
<circle cx="18" cy="14" r="4" fill="url(#paint2_linear_1364_5833)"/>
<defs>
<linearGradient id="paint0_linear_1364_5833" x1="18" y1="4" x2="18" y2="29.8947" gradientUnits="userSpaceOnUse">
<stop stop-color="#1C57EE"/>
<stop offset="1" stop-color="#80C2FF"/>
</linearGradient>
<linearGradient id="paint1_linear_1364_5833" x1="18.0004" y1="20" x2="18.0004" y2="32" gradientUnits="userSpaceOnUse">
<stop stop-color="white"/>
<stop offset="1" stop-color="#9DB9FF"/>
</linearGradient>
<linearGradient id="paint2_linear_1364_5833" x1="18" y1="10" x2="18" y2="18" gradientUnits="userSpaceOnUse">
<stop stop-color="white"/>
<stop offset="1" stop-color="white"/>
</linearGradient>
</defs>
</svg>
